<svg xmlns="http://www.w3.org/2000/svg" xmlns:xlink="http://www.w3.org/1999/xlink" xmlns:lucid="lucid" width="1763.19" height="1082.64"><g transform="translate(0 0)" lucid:page-tab-id="0_0"><path d="M0 0h1763.2v1082.64H0z" fill="#fff"/><path d="M615.77 83c0-4.42 3.6-8 8-8h621.97c4.42 0 8 3.58 8 8v26.15c0 4.4-3.58 8-8 8H623.77c-4.4 0-8-3.6-8-8z" stroke="#000" stroke-opacity="0" stroke-width="2" fill="#fff" fill-opacity="0"/><use xlink:href="#a" transform="matrix(1,0,0,1,619.7737928334128,78.99999999999999) translate(101.1025925925926 23.657777777777778)"/><use xlink:href="#b" transform="matrix(1,0,0,1,619.7737928334128,78.99999999999999) translate(164.47296296296298 23.657777777777778)"/><use xlink:href="#c" transform="matrix(1,0,0,1,619.7737928334128,78.99999999999999) translate(280.7248148148148 23.657777777777778)"/><use xlink:href="#d" transform="matrix(1,0,0,1,619.7737928334128,78.99999999999999) translate(312.6285185185185 23.657777777777778)"/><use xlink:href="#e" transform="matrix(1,0,0,1,619.7737928334128,78.99999999999999) translate(376.65444444444444 23.657777777777778)"/><use xlink:href="#f" transform="matrix(1,0,0,1,619.7737928334128,78.99999999999999) translate(420.72234567901234 23.657777777777778)"/><path d="M624.52 115.77H1245M624.54 115.77h-4.02M1244.97 115.77h4.03" stroke="#b2b2b2" stroke-width="2" fill="none"/><path d="M589.5 125.15c0-4.42 3.6-8 8-8H1272c4.42 0 8 3.58 8 8v15.25c0 4.4-3.58 8-8 8H597.5c-4.4 0-8-3.6-8-8z" stroke="#000" stroke-opacity="0" stroke-width="2" fill="#fff" fill-opacity="0"/><use xlink:href="#g" transform="matrix(1,0,0,1,593.5143151923994,121.14666666666668) translate(202.76689300411525 16.417037037037037)"/><use xlink:href="#h" transform="matrix(1,0,0,1,593.5143151923994,121.14666666666668) translate(283.41236625514404 16.417037037037037)"/><use xlink:href="#i" transform="matrix(1,0,0,1,593.5143151923994,121.14666666666668) translate(348.76154320987655 16.417037037037037)"/><use xlink:href="#j" transform="matrix(1,0,0,1,593.5143151923994,121.14666666666668) translate(361.2110288065844 16.417037037037037)"/><use xlink:href="#k" transform="matrix(1,0,0,1,593.5143151923994,121.14666666666668) translate(435.86545267489714 16.417037037037037)"/><use xlink:href="#l" transform="matrix(1,0,0,1,593.5143151923994,121.14666666666668) translate(452.86133744855965 16.417037037037037)"/><g filter="url(#m)"><path d="M700 400h240v60H700z" stroke="#000" stroke-width="2" fill="#fff"/><use xlink:href="#n" transform="matrix(1,0,0,1,708,408) translate(19.299999999999997 25.6)"/></g><path d="M820 558v-59.5" stroke="#000" stroke-width="2" fill="none"/><path d="M821 559h-2v-1.03h2z"/><path d="M820 483.24l4.64 14.26h-9.28z" stroke="#000" stroke-width="2" fill="#fff"/><path d="M820 479v.5M820 478.97V480" stroke="#000" stroke-width="2" fill="none"/><path d="M820 464.24l4.64 14.26h-9.28z" stroke="#000" stroke-width="2" fill="#fff"/><g filter="url(#m)"><path d="M700 560h240v60H700z" stroke="#000" stroke-width="2" fill="#fff"/><use xlink:href="#o" transform="matrix(1,0,0,1,708,568) translate(20.650000000000006 25.6)"/></g><path d="M759.5 622v91H839" stroke="#000" stroke-width="2" fill="none"/><path d="M760.5 622.03h-2V621h2z"/><path d="M849 703v20M859 713h-20M839 703v20M860 674c0-8.28 6.72-15 15-15h170c8.28 0 15 6.72 15 15v78c0 8.28-6.72 15-15 15H875c-8.28 0-15-6.72-15-15z" stroke="#000" stroke-width="2" fill="#fff"/><use xlink:href="#p" transform="matrix(1,0,0,1,868,667) translate(11.888888888888886 28.977777777777774)"/><use xlink:href="#q" transform="matrix(1,0,0,1,868,667) translate(70.525 49.6)"/><use xlink:href="#r" transform="matrix(1,0,0,1,868,667) translate(50.99382716049382 69.24444444444444)"/><g filter="url(#m)"><path d="M140 400h240v60H140z" stroke="#000" stroke-width="2" fill="#fff"/><use xlink:href="#n" transform="matrix(1,0,0,1,148.00000000000006,408) translate(19.299999999999997 25.6)"/></g><g filter="url(#m)"><path d="M140 540h240v60H140z" stroke="#000" stroke-width="2" fill="#fff"/><use xlink:href="#s" transform="matrix(1,0,0,1,148.00000000000006,548) translate(53.24999999999999 25.6)"/></g><path d="M181.7 602v93.52h62.54" stroke="#000" stroke-width="2" fill="none"/><path d="M182.7 602.03h-2V601h2z"/><path d="M244.24 685.52v20M264.24 695.52h-20M505.24 695.52c0 19.62-53.72 35.52-120 35.52-66.27 0-120-15.9-120-35.52 0-19.62 53.73-35.52 120-35.52 66.28 0 120 15.9 120 35.52z" stroke="#000" stroke-width="2" fill="#fff"/><use xlink:href="#t" transform="matrix(1,0,0,1,265.24284240380035,660) translate(108.00500000000001 39.15)"/><path d="M140 780h329.24l36 36v144H140z" stroke="#c92d39" stroke-width="2" fill="#fcc438"/><path d="M469.24 780.95V816h35.05" stroke="#c92d39" stroke-width="2" fill="#fcc438"/><use xlink:href="#u" transform="matrix(1,0,0,1,145.00000000000006,785) translate(0 35.65)"/><use xlink:href="#v" transform="matrix(1,0,0,1,145.00000000000006,785) translate(31 35.65)"/><use xlink:href="#w" transform="matrix(1,0,0,1,145.00000000000006,785) translate(107.95 35.65)"/><use xlink:href="#x" transform="matrix(1,0,0,1,145.00000000000006,785) translate(122.95 35.65)"/><use xlink:href="#y" transform="matrix(1,0,0,1,145.00000000000006,785) translate(212.8 35.65)"/><use xlink:href="#z" transform="matrix(1,0,0,1,145.00000000000006,785) translate(231.75 35.65)"/><use xlink:href="#A" transform="matrix(1,0,0,1,145.00000000000006,785) translate(246.75 35.65)"/><use xlink:href="#B" transform="matrix(1,0,0,1,145.00000000000006,785) translate(276.75 35.65)"/><use xlink:href="#C" transform="matrix(1,0,0,1,145.00000000000006,785) translate(0 57.25)"/><use xlink:href="#D" transform="matrix(1,0,0,1,145.00000000000006,785) translate(81.9 57.25)"/><use xlink:href="#E" transform="matrix(1,0,0,1,145.00000000000006,785) translate(169.8 57.25)"/><use xlink:href="#F" transform="matrix(1,0,0,1,145.00000000000006,785) translate(252.70000000000002 57.25)"/><use xlink:href="#G" transform="matrix(1,0,0,1,145.00000000000006,785) translate(267.70000000000005 57.25)"/><use xlink:href="#H" transform="matrix(1,0,0,1,145.00000000000006,785) translate(301.70000000000005 57.25)"/><use xlink:href="#v" transform="matrix(1,0,0,1,145.00000000000006,785) translate(0 78.85000000000001)"/><use xlink:href="#I" transform="matrix(1,0,0,1,145.00000000000006,785) translate(76.95 78.85000000000001)"/><use xlink:href="#J" transform="matrix(1,0,0,1,145.00000000000006,785) translate(101.95 78.85000000000001)"/><use xlink:href="#K" transform="matrix(1,0,0,1,145.00000000000006,785) translate(171.85000000000002 78.85000000000001)"/><use xlink:href="#L" transform="matrix(1,0,0,1,145.00000000000006,785) translate(266.45000000000005 78.85000000000001)"/><use xlink:href="#F" transform="matrix(1,0,0,1,145.00000000000006,785) translate(0 100.45000000000002)"/><use xlink:href="#M" transform="matrix(1,0,0,1,145.00000000000006,785) translate(15 100.45000000000002)"/><use xlink:href="#N" transform="matrix(1,0,0,1,145.00000000000006,785) translate(82.95 100.45000000000002)"/><use xlink:href="#O" transform="matrix(1,0,0,1,145.00000000000006,785) translate(135.85000000000002 100.45000000000002)"/><use xlink:href="#P" transform="matrix(1,0,0,1,145.00000000000006,785) translate(212.70000000000005 100.45000000000002)"/><use xlink:href="#Q" transform="matrix(1,0,0,1,145.00000000000006,785) translate(225.60000000000005 100.45000000000002)"/><use xlink:href="#R" transform="matrix(1,0,0,1,145.00000000000006,785) translate(288.55000000000007 100.45000000000002)"/><use xlink:href="#Q" transform="matrix(1,0,0,1,145.00000000000006,785) translate(0 122.05000000000001)"/><use xlink:href="#S" transform="matrix(1,0,0,1,145.00000000000006,785) translate(62.95 122.05000000000001)"/><use xlink:href="#T" transform="matrix(1,0,0,1,145.00000000000006,785) translate(96.95 122.05000000000001)"/><use xlink:href="#U" transform="matrix(1,0,0,1,145.00000000000006,785) translate(170.85000000000002 122.05000000000001)"/><use xlink:href="#V" transform="matrix(1,0,0,1,145.00000000000006,785) translate(0 143.65)"/><path d="M260 538v-76" stroke="#000" stroke-width="2" fill="none"/><path d="M261 539h-2v-1.03h2zM261 462.03h-2V461h2z"/><path d="M323.02 778.7l61.82-46.36" fill="none"/><path d="M323.02 778.7l4.12-3.1m4.12-3.08l8.25-6.18m4.13-3.1l8.24-6.17m4.12-3.1l8.24-6.17m4.12-3.1l8.24-6.18m4.12-3.1l4.12-3.08" stroke="#000" fill="none"/><path d="M323.26 779h-1.47l.93-.7zM385.24 732.04h.85l-.97.7-.54-.7z"/><path d="M260 462v39-22.5" stroke="#000" stroke-width="2" fill="none"/><path d="M261 462.03h-2V461h2z"/><path d="M260 463.24l4.64 14.26h-9.28zM140 260h228l12 12v48H140z" stroke="#000" stroke-width="2" fill="#fff"/><path d="M368 260.95V272h11.05" stroke="#000" stroke-width="2" fill="#fff"/><g><use xlink:href="#W" transform="matrix(1,0,0,1,145.00000000000003,265) translate(33.224999999999994 30.025)"/><use xlink:href="#X" transform="matrix(1,0,0,1,145.00000000000003,265) translate(123.025 30.025)"/></g><path d="M700 260h228l12 12v48H700z" stroke="#000" stroke-width="2" fill="#fff"/><path d="M928 260.95V272h11.05" stroke="#000" stroke-width="2" fill="#fff"/><g><use xlink:href="#Y" transform="matrix(1,0,0,1,705,265) translate(34.45 17.525)"/><use xlink:href="#X" transform="matrix(1,0,0,1,705,265) translate(78.125 39.125)"/></g><path d="M1259.2 260h228l12 12v48h-240z" stroke="#000" stroke-width="2" fill="#fff"/><path d="M1487.2 260.95V272h11.04" stroke="#000" stroke-width="2" fill="#fff"/><g><use xlink:href="#Z" transform="matrix(1,0,0,1,1264.1936579812227,265) translate(22.700000000000003 17.525)"/><use xlink:href="#X" transform="matrix(1,0,0,1,1264.1936579812227,265) translate(78.125 39.125)"/></g><g filter="url(#m)"><path d="M1259.2 400h240v60h-240z" stroke="#000" stroke-width="2" fill="#fff"/><use xlink:href="#n" transform="matrix(1,0,0,1,1267.1936579812227,408) translate(19.299999999999997 25.6)"/></g><path d="M1379.2 558v-96" stroke="#000" stroke-width="2" fill="none"/><path d="M1380.2 559h-2v-1.03h2zM1380.2 462.03h-2V461h2z"/><path d="M1379.2 462v39-22.5" stroke="#000" stroke-width="2" fill="none"/><path d="M1380.2 462.03h-2V461h2z"/><path d="M1379.2 463.24l4.63 14.26h-9.27z" stroke="#000" stroke-width="2" fill="#fff"/><g filter="url(#m)"><path d="M1259.2 560h240v60h-240z" stroke="#000" stroke-width="2" fill="#fff"/><use xlink:href="#aa" transform="matrix(1,0,0,1,1267.1936579812227,568) translate(10.349999999999994 25.6)"/></g><path d="M1317.97 622v91H1399" stroke="#000" stroke-width="2" fill="none"/><path d="M1318.97 622.03h-2V621h2z"/><path d="M1399 703v20M1419 713h-20M1420 674c0-8.28 6.72-15 15-15h170c8.28 0 15 6.72 15 15v78c0 8.28-6.72 15-15 15h-170c-8.28 0-15-6.72-15-15z" stroke="#000" stroke-width="2" fill="#fff"/><g><use xlink:href="#ab" transform="matrix(1,0,0,1,1428,667) translate(23.944444444444443 28.977777777777774)"/><use xlink:href="#ac" transform="matrix(1,0,0,1,1428,667) translate(77.55 49.6)"/><use xlink:href="#r" transform="matrix(1,0,0,1,1428,667) translate(50.99382716049382 69.24444444444444)"/></g><path d="M1317.97 622v248H1399" stroke="#000" stroke-width="2" fill="none"/><path d="M1318.97 622.03h-2V621h2z"/><path d="M1399 860v20M1419 870h-20M1420 831c0-8.28 6.72-15 15-15h170c8.28 0 15 6.72 15 15v78c0 8.28-6.72 15-15 15h-170c-8.28 0-15-6.72-15-15z" stroke="#000" stroke-width="2" fill="#fff"/><g><use xlink:href="#ab" transform="matrix(1,0,0,1,1428,824) translate(23.944444444444443 28.977777777777774)"/><use xlink:href="#ad" transform="matrix(1,0,0,1,1428,824) translate(63 49.6)"/><use xlink:href="#r" transform="matrix(1,0,0,1,1428,824) translate(50.99382716049382 69.24444444444444)"/></g><g opacity=".5"><path d="M100 220h440v780H100z" stroke="#000" stroke-width="2" fill-opacity="0"/></g><g opacity=".5"><path d="M660 220h440v780H660z" stroke="#000" stroke-width="2" fill-opacity="0"/></g><g opacity=".5"><path d="M1220 220h440v780h-440z" stroke="#000" stroke-width="2" fill-opacity="0"/></g><defs><path fill="#b2b2b2" d="M238-95c0 69-44 99-111 99C63 4 22-25 22-93v-155h51v151c-1 38 19 59 55 60 90 1 49-130 58-211h52v153" id="ae"/><path fill="#b2b2b2" d="M230 0l2-204L168 0h-37L68-204 70 0H24v-248h70l56 185 57-185h69V0h-46" id="af"/><path fill="#b2b2b2" d="M24 0v-248h52v208h133V0H24" id="ag"/><g id="a"><use transform="matrix(0.0728395061728395,0,0,0.0728395061728395,0,0)" xlink:href="#ae"/><use transform="matrix(0.0728395061728395,0,0,0.0728395061728395,18.86543209876543,0)" xlink:href="#af"/><use transform="matrix(0.0728395061728395,0,0,0.0728395061728395,40.644444444444446,0)" xlink:href="#ag"/></g><path fill="#b2b2b2" d="M220-157c-53 9-28 100-34 157h-49v-107c1-27-5-49-29-50C55-147 81-57 75 0H25l-1-190h47c2 12-1 28 3 38 10-53 101-56 108 0 13-22 24-43 59-42 82 1 51 116 57 194h-49v-107c-1-25-5-48-29-50" id="ah"/><path fill="#b2b2b2" d="M133-34C117-15 103 5 69 4 32 3 11-16 11-54c-1-60 55-63 116-61 1-26-3-47-28-47-18 1-26 9-28 27l-52-2c7-38 36-58 82-57s74 22 75 68l1 82c-1 14 12 18 25 15v27c-30 8-71 5-69-32zm-48 3c29 0 43-24 42-57-32 0-66-3-65 30 0 17 8 27 23 27" id="ai"/><path fill="#b2b2b2" d="M135-194c53 0 70 44 70 98 0 56-19 98-73 100-31 1-45-17-59-34 3 33 2 69 2 105H25l-1-265h48c2 10 0 23 3 31 11-24 29-35 60-35zM114-30c33 0 39-31 40-66 0-38-9-64-40-64-56 0-55 130 0 130" id="aj"/><path fill="#b2b2b2" d="M25-224v-37h50v37H25zM25 0v-190h50V0H25" id="ak"/><path fill="#b2b2b2" d="M135-194c87-1 58 113 63 194h-50c-7-57 23-157-34-157-59 0-34 97-39 157H25l-1-190h47c2 12-1 28 3 38 12-26 28-41 61-42" id="al"/><path fill="#b2b2b2" d="M195-6C206 82 75 100 31 46c-4-6-6-13-8-21l49-6c3 16 16 24 34 25 40 0 42-37 40-79-11 22-30 35-61 35-53 0-70-43-70-97 0-56 18-96 73-97 30 0 46 14 59 34l2-30h47zm-90-29c32 0 41-27 41-63 0-35-9-62-40-62-32 0-39 29-40 63 0 36 9 62 39 62" id="am"/><g id="b"><use transform="matrix(0.0728395061728395,0,0,0.0728395061728395,0,0)" xlink:href="#ah"/><use transform="matrix(0.0728395061728395,0,0,0.0728395061728395,23.308641975308642,0)" xlink:href="#ai"/><use transform="matrix(0.0728395061728395,0,0,0.0728395061728395,37.876543209876544,0)" xlink:href="#aj"/><use transform="matrix(0.0728395061728395,0,0,0.0728395061728395,53.82839506172839,0)" xlink:href="#aj"/><use transform="matrix(0.0728395061728395,0,0,0.0728395061728395,69.78024691358024,0)" xlink:href="#ak"/><use transform="matrix(0.0728395061728395,0,0,0.0728395061728395,77.06419753086419,0)" xlink:href="#al"/><use transform="matrix(0.0728395061728395,0,0,0.0728395061728395,93.01604938271605,0)" xlink:href="#am"/></g><path fill="#b2b2b2" d="M115-3C79 11 28 4 28-45v-112H4v-33h27l15-45h31v45h36v33H77v99c-1 23 16 31 38 25v30" id="an"/><path fill="#b2b2b2" d="M110-194c64 0 96 36 96 99 0 64-35 99-97 99-61 0-95-36-95-99 0-62 34-99 96-99zm-1 164c35 0 45-28 45-65 0-40-10-65-43-65-34 0-45 26-45 65 0 36 10 65 43 65" id="ao"/><g id="c"><use transform="matrix(0.0728395061728395,0,0,0.0728395061728395,0,0)" xlink:href="#an"/><use transform="matrix(0.0728395061728395,0,0,0.0728395061728395,8.667901234567902,0)" xlink:href="#ao"/></g><path fill="#b2b2b2" d="M140-251c80 0 125 45 125 126S219 4 139 4C58 4 15-44 15-125s44-126 125-126zm-1 214c52 0 73-35 73-88 0-50-21-86-72-86-52 0-73 35-73 86s22 88 72 88" id="ap"/><path fill="#b2b2b2" d="M24-248c93 1 206-16 204 79-1 75-69 88-152 82V0H24v-248zm52 121c47 0 100 7 100-41 0-47-54-39-100-39v80" id="aq"/><path fill="#b2b2b2" d="M67-125c0 53 21 87 73 88 37 1 54-22 65-47l45 17C233-25 199 4 140 4 58 4 20-42 15-125 8-235 124-281 211-232c18 10 29 29 36 50l-46 12c-8-25-30-41-62-41-52 0-71 34-72 86" id="ar"/><g id="d"><use transform="matrix(0.0728395061728395,0,0,0.0728395061728395,0,0)" xlink:href="#ap"/><use transform="matrix(0.0728395061728395,0,0,0.0728395061728395,20.39506172839506,0)" xlink:href="#aq"/><use transform="matrix(0.0728395061728395,0,0,0.0728395061728395,37.876543209876544,0)" xlink:href="#ar"/></g><path fill="#b2b2b2" d="M199 0l-22-63H83L61 0H9l90-248h61L250 0h-51zm-33-102l-36-108c-10 38-24 72-36 108h72" id="as"/><g id="e"><use transform="matrix(0.0728395061728395,0,0,0.0728395061728395,0,0)" xlink:href="#ae"/><use transform="matrix(0.0728395061728395,0,0,0.0728395061728395,18.86543209876543,0)" xlink:href="#as"/></g><path fill="#b2b2b2" d="M135-150c-39-12-60 13-60 57V0H25l-1-190h47c2 13-1 29 3 40 6-28 27-53 61-41v41" id="at"/><path fill="#b2b2b2" d="M185-48c-13 30-37 53-82 52C43 2 14-33 14-96s30-98 90-98c62 0 83 45 84 108H66c0 31 8 55 39 56 18 0 30-7 34-22zm-45-69c5-46-57-63-70-21-2 6-4 13-4 21h74" id="au"/><path fill="#b2b2b2" d="M169-182c-1-43-94-46-97-3 18 66 151 10 154 114 3 95-165 93-204 36-6-8-10-19-12-30l50-8c3 46 112 56 116 5-17-69-150-10-154-114-4-87 153-88 188-35 5 8 8 18 10 28" id="av"/><g id="f"><use transform="matrix(0.0728395061728395,0,0,0.0728395061728395,0,0)" xlink:href="#ar"/><use transform="matrix(0.0728395061728395,0,0,0.0728395061728395,18.86543209876543,0)" xlink:href="#ao"/><use transform="matrix(0.0728395061728395,0,0,0.0728395061728395,34.81728395061728,0)" xlink:href="#at"/><use transform="matrix(0.0728395061728395,0,0,0.0728395061728395,45.01481481481481,0)" xlink:href="#au"/><use transform="matrix(0.0728395061728395,0,0,0.0728395061728395,59.582716049382704,0)" xlink:href="#as"/><use transform="matrix(0.0728395061728395,0,0,0.0728395061728395,78.44814814814814,0)" xlink:href="#as"/><use transform="matrix(0.0728395061728395,0,0,0.0728395061728395,97.31358024691357,0)" xlink:href="#av"/></g><path fill="#b2b2b2" d="M205 0l-28-72H64L36 0H1l101-248h38L239 0h-34zm-38-99l-47-123c-12 45-31 82-46 123h93" id="aw"/><path fill="#b2b2b2" d="M24 0v-261h32V0H24" id="ax"/><path fill="#b2b2b2" d="M100-194c63 0 86 42 84 106H49c0 40 14 67 53 68 26 1 43-12 49-29l28 8c-11 28-37 45-77 45C44 4 14-33 15-96c1-61 26-98 85-98zm52 81c6-60-76-77-97-28-3 7-6 17-6 28h103" id="ay"/><path fill="#b2b2b2" d="M135-143c-3-34-86-38-87 0 15 53 115 12 119 90S17 21 10-45l28-5c4 36 97 45 98 0-10-56-113-15-118-90-4-57 82-63 122-42 12 7 21 19 24 35" id="az"/><path fill="#b2b2b2" d="M141-36C126-15 110 5 73 4 37 3 15-17 15-53c-1-64 63-63 125-63 3-35-9-54-41-54-24 1-41 7-42 31l-33-3c5-37 33-52 76-52 45 0 72 20 72 64v82c-1 20 7 32 28 27v20c-31 9-61-2-59-35zM48-53c0 20 12 33 32 33 41-3 63-29 60-74-43 2-92-5-92 41" id="aA"/><path fill="#b2b2b2" d="M117-194c89-4 53 116 60 194h-32v-121c0-31-8-49-39-48C34-167 62-67 57 0H25l-1-190h30c1 10-1 24 2 32 11-22 29-35 61-36" id="aB"/><path fill="#b2b2b2" d="M85-194c31 0 48 13 60 33l-1-100h32l1 261h-30c-2-10 0-23-3-31C134-8 116 4 85 4 32 4 16-35 15-94c0-66 23-100 70-100zm9 24c-40 0-46 34-46 75 0 40 6 74 45 74 42 0 51-32 51-76 0-42-9-74-50-73" id="aC"/><path fill="#b2b2b2" d="M114-163C36-179 61-72 57 0H25l-1-190h30c1 12-1 29 2 39 6-27 23-49 58-41v29" id="aD"/><path fill="#b2b2b2" d="M100-194c62-1 85 37 85 99 1 63-27 99-86 99S16-35 15-95c0-66 28-99 85-99zM99-20c44 1 53-31 53-75 0-43-8-75-51-75s-53 32-53 75 10 74 51 75" id="aE"/><g id="g"><use transform="matrix(0.04248971193415638,0,0,0.04248971193415638,0,0)" xlink:href="#aw"/><use transform="matrix(0.04248971193415638,0,0,0.04248971193415638,10.19753086419753,0)" xlink:href="#ax"/><use transform="matrix(0.04248971193415638,0,0,0.04248971193415638,13.554218106995881,0)" xlink:href="#ay"/><use transform="matrix(0.04248971193415638,0,0,0.04248971193415638,22.05216049382716,0)" xlink:href="#az"/><use transform="matrix(0.04248971193415638,0,0,0.04248971193415638,29.700308641975308,0)" xlink:href="#az"/><use transform="matrix(0.04248971193415638,0,0,0.04248971193415638,37.34845679012346,0)" xlink:href="#aA"/><use transform="matrix(0.04248971193415638,0,0,0.04248971193415638,45.84639917695473,0)" xlink:href="#aB"/><use transform="matrix(0.04248971193415638,0,0,0.04248971193415638,54.344341563786,0)" xlink:href="#aC"/><use transform="matrix(0.04248971193415638,0,0,0.04248971193415638,62.84228395061729,0)" xlink:href="#aD"/><use transform="matrix(0.04248971193415638,0,0,0.04248971193415638,67.89855967078189,0)" xlink:href="#aE"/></g><path fill="#b2b2b2" d="M240 0l2-218c-23 76-54 145-80 218h-23L58-218 59 0H30v-248h44l77 211c21-75 51-140 76-211h43V0h-30" id="aF"/><path fill="#b2b2b2" d="M24-231v-30h32v30H24zM24 0v-190h32V0H24" id="aG"/><g id="h"><use transform="matrix(0.04248971193415638,0,0,0.04248971193415638,0,0)" xlink:href="#aF"/><use transform="matrix(0.04248971193415638,0,0,0.04248971193415638,12.704423868312757,0)" xlink:href="#ay"/><use transform="matrix(0.04248971193415638,0,0,0.04248971193415638,21.20236625514403,0)" xlink:href="#az"/><use transform="matrix(0.04248971193415638,0,0,0.04248971193415638,28.85051440329218,0)" xlink:href="#az"/><use transform="matrix(0.04248971193415638,0,0,0.04248971193415638,36.498662551440326,0)" xlink:href="#aG"/><use transform="matrix(0.04248971193415638,0,0,0.04248971193415638,39.85534979423868,0)" xlink:href="#aB"/><use transform="matrix(0.04248971193415638,0,0,0.04248971193415638,48.35329218106995,0)" xlink:href="#aA"/></g><path fill="#b2b2b2" d="M32 76v-337h29V76H32" id="aH"/><use transform="matrix(0.04248971193415638,0,0,0.04248971193415638,0,0)" xlink:href="#aH" id="i"/><path fill="#b2b2b2" d="M190 0L58-211 59 0H30v-248h39L202-35l-2-213h31V0h-41" id="aI"/><path fill="#b2b2b2" d="M108 0H70L1-190h34L89-25l56-165h34" id="aJ"/><path fill="#b2b2b2" d="M210-169c-67 3-38 105-44 169h-31v-121c0-29-5-50-35-48C34-165 62-65 56 0H25l-1-190h30c1 10-1 24 2 32 10-44 99-50 107 0 11-21 27-35 58-36 85-2 47 119 55 194h-31v-121c0-29-5-49-35-48" id="aK"/><path fill="#b2b2b2" d="M115-194c53 0 69 39 70 98 0 66-23 100-70 100C84 3 66-7 56-30L54 0H23l1-261h32v101c10-23 28-34 59-34zm-8 174c40 0 45-34 45-75 0-40-5-75-45-74-42 0-51 32-51 76 0 43 10 73 51 73" id="aL"/><g id="j"><use transform="matrix(0.04248971193415638,0,0,0.04248971193415638,0,0)" xlink:href="#aI"/><use transform="matrix(0.04248971193415638,0,0,0.04248971193415638,11.004835390946502,0)" xlink:href="#aE"/><use transform="matrix(0.04248971193415638,0,0,0.04248971193415638,19.502777777777776,0)" xlink:href="#aJ"/><use transform="matrix(0.04248971193415638,0,0,0.04248971193415638,27.150925925925925,0)" xlink:href="#ay"/><use transform="matrix(0.04248971193415638,0,0,0.04248971193415638,35.6488683127572,0)" xlink:href="#aK"/><use transform="matrix(0.04248971193415638,0,0,0.04248971193415638,48.35329218106995,0)" xlink:href="#aL"/><use transform="matrix(0.04248971193415638,0,0,0.04248971193415638,56.851234567901244,0)" xlink:href="#ay"/><use transform="matrix(0.04248971193415638,0,0,0.04248971193415638,65.34917695473251,0)" xlink:href="#aD"/></g><path fill="#b2b2b2" d="M110-160c48 1 74 30 74 79 0 53-28 85-80 85-65 0-83-55-86-122-5-90 50-162 133-122 14 7 22 21 27 39l-31 6c-5-40-67-38-82-6-9 19-15 44-15 74 11-20 30-34 60-33zm-7 138c34 0 49-23 49-58s-16-56-50-56c-29 0-50 16-49 49 1 36 15 65 50 65" id="aM"/><path fill="#b2b2b2" d="M68-38c1 34 0 65-14 84H32c9-13 17-26 17-46H33v-38h35" id="aN"/><g id="k"><use transform="matrix(0.04248971193415638,0,0,0.04248971193415638,0,0)" xlink:href="#aM"/><use transform="matrix(0.04248971193415638,0,0,0.04248971193415638,8.497942386831275,0)" xlink:href="#aN"/></g><path fill="#b2b2b2" d="M101-251c82-7 93 87 43 132L82-64C71-53 59-42 53-27h129V0H18c2-99 128-94 128-182 0-28-16-43-45-43s-46 15-49 41l-32-3c6-41 34-60 81-64" id="aO"/><path fill="#b2b2b2" d="M101-251c68 0 85 55 85 127S166 4 100 4C33 4 14-52 14-124c0-73 17-127 87-127zm-1 229c47 0 54-49 54-102s-4-102-53-102c-51 0-55 48-55 102 0 53 5 102 54 102" id="aP"/><path fill="#b2b2b2" d="M27 0v-27h64v-190l-56 39v-29l58-41h29v221h61V0H27" id="aQ"/><path fill="#b2b2b2" d="M99-251c64 0 84 50 84 122C183-37 130 33 47-8c-14-7-20-23-25-40l30-5c6 39 69 39 84 7 9-19 16-44 16-74-10 22-31 35-62 35-49 0-73-33-73-83 0-54 28-83 82-83zm-1 141c31-1 51-18 51-49 0-36-14-67-51-67-34 0-49 23-49 58 0 34 15 58 49 58" id="aR"/><g id="l"><use transform="matrix(0.04248971193415638,0,0,0.04248971193415638,0,0)" xlink:href="#aO"/><use transform="matrix(0.04248971193415638,0,0,0.04248971193415638,8.497942386831275,0)" xlink:href="#aP"/><use transform="matrix(0.04248971193415638,0,0,0.04248971193415638,16.99588477366255,0)" xlink:href="#aQ"/><use transform="matrix(0.04248971193415638,0,0,0.04248971193415638,25.493827160493822,0)" xlink:href="#aR"/></g><path d="M194-120c59 52 2 134-86 124-53-6-90-18-98-63l31-7c8 30 29 43 70 43 46 0 84-17 71-62-32-43-135-20-137-98-3-89 178-90 191-16l-30 9c-8-48-127-53-127 5 0 53 81 35 115 65" id="aS"/><path d="M67 3c-93-2-31-127-26-193h32L48-50c-3 39 53 32 70 12 30-34 30-101 43-152h32L157 0h-30c1-10 6-24 4-33-14 20-29 37-64 36" id="aT"/><path d="M68-162c25-46 127-43 121 31C183-60 169 1 98 4 69 5 53-11 43-31L36 0H5l52-261h31zm88 36c2-27-9-43-34-43-55 0-70 51-70 103 0 29 15 45 43 46 52 0 58-58 61-106" id="aU"/><path d="M248-111c6-24 9-61-24-58-72 9-57 108-77 169h-31l26-142c3-37-50-30-64-10C52-115 50-51 37 0H6l36-190h30c-1 10-6 24-4 32 13-43 101-52 105 5 13-22 29-41 61-41 90 0 28 129 23 194h-31" id="aV"/><path d="M30-147c31-64 166-65 159 27C183-49 158 1 86 4 9 8 1-88 30-147zM88-20c53 0 68-48 68-100 0-31-11-51-44-50-52 1-68 46-68 97 0 32 13 53 44 53" id="aW"/><path d="M133-28C103 26-5 8 13-77c13-62 24-115 90-117 29-1 46 15 56 35l19-102h32L160 0h-30zM45-64c-2 27 10 43 35 43 54-1 69-50 69-103 0-29-15-46-42-46-53-1-58 58-62 106" id="aX"/><path d="M111-194c62-3 86 47 72 106H45c-7 38 6 69 45 68 27-1 43-14 53-32l24 11C152-15 129 4 87 4 38 3 12-23 12-71c0-70 32-119 99-123zm44 81c14-66-71-72-95-28-4 8-8 17-11 28h106" id="aY"/><path d="M6 0l50-261h32L37 0H6" id="aZ"/><path d="M11 0l48-248h184l-5 28H87l-15 79h140l-5 27H67L50-27h158l-5 27H11" id="ba"/><path d="M67-158c22-48 132-52 116 29L158 0h-32l25-140c3-38-53-32-70-12C52-117 51-52 38 0H6l36-190h30" id="bb"/><path d="M51-54c-9 22 5 41 31 30L79-1C43 14 10-4 19-52l22-115H19l5-23h22l19-43h21l-9 43h35l-4 23H73" id="bc"/><path d="M151-220L108 0H75l42-220H32l6-28h203l-5 28h-85" id="bd"/><path d="M198-190L69 30C53 58 25 83-20 72c4-11-1-27 19-22 33-1 43-29 59-52L20-190h32L79-34l84-156h35" id="be"/><path d="M67-162c32-53 139-36 121 50C175-51 163 2 97 4 68 4 52-11 42-31 38 6 28 39 22 75H-9l50-265h29c-1 10 0 20-3 28zm89 36c0-26-10-43-35-43-54 0-67 50-69 103-1 29 14 45 42 46 53 0 62-58 62-106" id="bf"/><g id="n"><use transform="matrix(0.05,0,0,0.05,0,0)" xlink:href="#aS"/><use transform="matrix(0.05,0,0,0.05,12,0)" xlink:href="#aT"/><use transform="matrix(0.05,0,0,0.05,22,0)" xlink:href="#aU"/><use transform="matrix(0.05,0,0,0.05,32,0)" xlink:href="#aV"/><use transform="matrix(0.05,0,0,0.05,46.95,0)" xlink:href="#aW"/><use transform="matrix(0.05,0,0,0.05,56.95,0)" xlink:href="#aX"/><use transform="matrix(0.05,0,0,0.05,66.95,0)" xlink:href="#aY"/><use transform="matrix(0.05,0,0,0.05,76.95,0)" xlink:href="#aZ"/><use transform="matrix(0.05,0,0,0.05,80.9,0)" xlink:href="#ba"/><use transform="matrix(0.05,0,0,0.05,92.9,0)" xlink:href="#aZ"/><use transform="matrix(0.05,0,0,0.05,96.85000000000001,0)" xlink:href="#aY"/><use transform="matrix(0.05,0,0,0.05,106.85000000000001,0)" xlink:href="#aV"/><use transform="matrix(0.05,0,0,0.05,121.80000000000001,0)" xlink:href="#aY"/><use transform="matrix(0.05,0,0,0.05,131.8,0)" xlink:href="#bb"/><use transform="matrix(0.05,0,0,0.05,141.8,0)" xlink:href="#bc"/><use transform="matrix(0.05,0,0,0.05,146.8,0)" xlink:href="#bd"/><use transform="matrix(0.05,0,0,0.05,156.4,0)" xlink:href="#be"/><use transform="matrix(0.05,0,0,0.05,165.4,0)" xlink:href="#bf"/><use transform="matrix(0.05,0,0,0.05,175.4,0)" xlink:href="#aY"/></g><filter id="m" filterUnits="objectBoundingBox" x="0" y="0" width="1.05" height="1.21"><feOffset result="offOut" in="SourceAlpha" dx="10.61" dy="10.61"/><feGaussianBlur result="blurOut" in="offOut" stdDeviation="1"/><feColorMatrix result="colorOut" in="blurOut" values="0 0 0 0 0 0 0 0 0 0 0 0 0 0 0 0 0 0 0.5019607843137255 0"/><feBlend in="SourceGraphic" in2="colorOut"/></filter><path d="M20-101c0-91 52-143 145-150 126-9 127 168 53 223-23 17-55 32-93 32C57 4 20-33 20-101zm216-33c5-57-18-91-73-90-77 1-110 51-110 125 0 49 23 75 73 75 72-1 104-45 110-110" id="bg"/><path d="M66-151c12-25 30-51 66-40l-6 26C45-176 58-65 38 0H6l36-190h30" id="bh"/><path d="M165-48c-4 18 1 34 23 27l-3 20c-29 8-62 0-52-35h-2C116-14 99 4 63 4 30 4 8-16 8-49c0-68 71-67 138-67 10-26 0-56-31-54-26 1-42 9-47 31l-32-5c8-67 160-71 144 15-5 28-9 54-15 81zM42-50c3 52 80 24 89-6 7-12 7-24 11-38-47 1-103-4-100 44" id="bi"/><path d="M50-231l6-30h32l-6 30H50zM6 0l37-190h31L37 0H6" id="bj"/><path d="M119 0H84L31-248h34l41 218 126-218h36" id="bk"/><g id="o"><use transform="matrix(0.05,0,0,0.05,0,0)" xlink:href="#bg"/><use transform="matrix(0.05,0,0,0.05,14,0)" xlink:href="#bf"/><use transform="matrix(0.05,0,0,0.05,24,0)" xlink:href="#aY"/><use transform="matrix(0.05,0,0,0.05,34,0)" xlink:href="#bh"/><use transform="matrix(0.05,0,0,0.05,39.95,0)" xlink:href="#bi"/><use transform="matrix(0.05,0,0,0.05,49.95,0)" xlink:href="#bc"/><use transform="matrix(0.05,0,0,0.05,54.95,0)" xlink:href="#bj"/><use transform="matrix(0.05,0,0,0.05,58.900000000000006,0)" xlink:href="#aW"/><use transform="matrix(0.05,0,0,0.05,68.9,0)" xlink:href="#bb"/><use transform="matrix(0.05,0,0,0.05,78.9,0)" xlink:href="#bk"/><use transform="matrix(0.05,0,0,0.05,90.25,0)" xlink:href="#bi"/><use transform="matrix(0.05,0,0,0.05,100.25,0)" xlink:href="#bh"/><use transform="matrix(0.05,0,0,0.05,106.2,0)" xlink:href="#bj"/><use transform="matrix(0.05,0,0,0.05,110.15,0)" xlink:href="#bi"/><use transform="matrix(0.05,0,0,0.05,120.15,0)" xlink:href="#aU"/><use transform="matrix(0.05,0,0,0.05,130.15,0)" xlink:href="#aZ"/><use transform="matrix(0.05,0,0,0.05,134.1,0)" xlink:href="#aY"/><use transform="matrix(0.05,0,0,0.05,144.1,0)" xlink:href="#bd"/><use transform="matrix(0.05,0,0,0.05,153.7,0)" xlink:href="#be"/><use transform="matrix(0.05,0,0,0.05,162.7,0)" xlink:href="#bf"/><use transform="matrix(0.05,0,0,0.05,172.7,0)" xlink:href="#aY"/></g><g id="p"><use transform="matrix(0.04320987654320988,0,0,0.04320987654320988,0,0)" xlink:href="#aS"/><use transform="matrix(0.04320987654320988,0,0,0.04320987654320988,10.370370370370372,0)" xlink:href="#aT"/><use transform="matrix(0.04320987654320988,0,0,0.04320987654320988,19.01234567901235,0)" xlink:href="#aU"/><use transform="matrix(0.04320987654320988,0,0,0.04320987654320988,27.654320987654323,0)" xlink:href="#aV"/><use transform="matrix(0.04320987654320988,0,0,0.04320987654320988,40.574074074074076,0)" xlink:href="#aW"/><use transform="matrix(0.04320987654320988,0,0,0.04320987654320988,49.21604938271606,0)" xlink:href="#aX"/><use transform="matrix(0.04320987654320988,0,0,0.04320987654320988,57.85802469135802,0)" xlink:href="#aY"/><use transform="matrix(0.04320987654320988,0,0,0.04320987654320988,66.5,0)" xlink:href="#aZ"/><use transform="matrix(0.04320987654320988,0,0,0.04320987654320988,69.91358024691358,0)" xlink:href="#ba"/><use transform="matrix(0.04320987654320988,0,0,0.04320987654320988,80.28395061728395,0)" xlink:href="#aZ"/><use transform="matrix(0.04320987654320988,0,0,0.04320987654320988,83.69753086419753,0)" xlink:href="#aY"/><use transform="matrix(0.04320987654320988,0,0,0.04320987654320988,92.33950617283952,0)" xlink:href="#aV"/><use transform="matrix(0.04320987654320988,0,0,0.04320987654320988,105.25925925925927,0)" xlink:href="#aY"/><use transform="matrix(0.04320987654320988,0,0,0.04320987654320988,113.90123456790124,0)" xlink:href="#bb"/><use transform="matrix(0.04320987654320988,0,0,0.04320987654320988,122.54320987654322,0)" xlink:href="#bc"/><use transform="matrix(0.04320987654320988,0,0,0.04320987654320988,126.86419753086422,0)" xlink:href="#bd"/><use transform="matrix(0.04320987654320988,0,0,0.04320987654320988,135.1604938271605,0)" xlink:href="#be"/><use transform="matrix(0.04320987654320988,0,0,0.04320987654320988,142.93827160493828,0)" xlink:href="#bf"/><use transform="matrix(0.04320987654320988,0,0,0.04320987654320988,151.58024691358025,0)" xlink:href="#aY"/></g><path d="M108 0H70L1-190h34L89-25l56-165h34" id="bl"/><path d="M141-36C126-15 110 5 73 4 37 3 15-17 15-53c-1-64 63-63 125-63 3-35-9-54-41-54-24 1-41 7-42 31l-33-3c5-37 33-52 76-52 45 0 72 20 72 64v82c-1 20 7 32 28 27v20c-31 9-61-2-59-35zM48-53c0 20 12 33 32 33 41-3 63-29 60-74-43 2-92-5-92 41" id="bm"/><path d="M24 0v-261h32V0H24" id="bn"/><path d="M84 4C-5 8 30-112 23-190h32v120c0 31 7 50 39 49 72-2 45-101 50-169h31l1 190h-30c-1-10 1-25-2-33-11 22-28 36-60 37" id="bo"/><path d="M100-194c63 0 86 42 84 106H49c0 40 14 67 53 68 26 1 43-12 49-29l28 8c-11 28-37 45-77 45C44 4 14-33 15-96c1-61 26-98 85-98zm52 81c6-60-76-77-97-28-3 7-6 17-6 28h103" id="bp"/><g id="q"><use transform="matrix(0.05,0,0,0.05,0,0)" xlink:href="#bl"/><use transform="matrix(0.05,0,0,0.05,9,0)" xlink:href="#bm"/><use transform="matrix(0.05,0,0,0.05,19,0)" xlink:href="#bn"/><use transform="matrix(0.05,0,0,0.05,22.95,0)" xlink:href="#bo"/><use transform="matrix(0.05,0,0,0.05,32.95,0)" xlink:href="#bp"/></g><path d="M26 75v-336h71v23H56V52h41v23H26" id="bq"/><path d="M240 0l2-218c-23 76-54 145-80 218h-23L58-218 59 0H30v-248h44l77 211c21-75 51-140 76-211h43V0h-30" id="br"/><path d="M117-194c89-4 53 116 60 194h-32v-121c0-31-8-49-39-48C34-167 62-67 57 0H25l-1-190h30c1 10-1 24 2 32 11-22 29-35 61-36" id="bs"/><path d="M85-194c31 0 48 13 60 33l-1-100h32l1 261h-30c-2-10 0-23-3-31C134-8 116 4 85 4 32 4 16-35 15-94c0-66 23-100 70-100zm9 24c-40 0-46 34-46 75 0 40 6 74 45 74 42 0 51-32 51-76 0-42-9-74-50-73" id="bt"/><path d="M59-47c-2 24 18 29 38 22v24C64 9 27 4 27-40v-127H5v-23h24l9-43h21v43h35v23H59v120" id="bu"/><path d="M100-194c62-1 85 37 85 99 1 63-27 99-86 99S16-35 15-95c0-66 28-99 85-99zM99-20c44 1 53-31 53-75 0-43-8-75-51-75s-53 32-53 75 10 74 51 75" id="bv"/><path d="M114-163C36-179 61-72 57 0H25l-1-190h30c1 12-1 29 2 39 6-27 23-49 58-41v29" id="bw"/><path d="M179-190L93 31C79 59 56 82 12 73V49c39 6 53-20 64-50L1-190h34L92-34l54-156h33" id="bx"/><path d="M3 75V52h41v-290H3v-23h71V75H3" id="by"/><g id="r"><use transform="matrix(0.04320987654320988,0,0,0.04320987654320988,0,0)" xlink:href="#bq"/><use transform="matrix(0.04320987654320988,0,0,0.04320987654320988,4.320987654320988,0)" xlink:href="#br"/><use transform="matrix(0.04320987654320988,0,0,0.04320987654320988,17.240740740740744,0)" xlink:href="#bm"/><use transform="matrix(0.04320987654320988,0,0,0.04320987654320988,25.882716049382722,0)" xlink:href="#bs"/><use transform="matrix(0.04320987654320988,0,0,0.04320987654320988,34.5246913580247,0)" xlink:href="#bt"/><use transform="matrix(0.04320987654320988,0,0,0.04320987654320988,43.16666666666667,0)" xlink:href="#bm"/><use transform="matrix(0.04320987654320988,0,0,0.04320987654320988,51.808641975308646,0)" xlink:href="#bu"/><use transform="matrix(0.04320987654320988,0,0,0.04320987654320988,56.12962962962963,0)" xlink:href="#bv"/><use transform="matrix(0.04320987654320988,0,0,0.04320987654320988,64.77160493827161,0)" xlink:href="#bw"/><use transform="matrix(0.04320987654320988,0,0,0.04320987654320988,69.91358024691358,0)" xlink:href="#bx"/><use transform="matrix(0.04320987654320988,0,0,0.04320987654320988,77.69135802469137,0)" xlink:href="#by"/></g><g id="s"><use transform="matrix(0.05,0,0,0.05,0,0)" xlink:href="#bg"/><use transform="matrix(0.05,0,0,0.05,14,0)" xlink:href="#bf"/><use transform="matrix(0.05,0,0,0.05,24,0)" xlink:href="#aY"/><use transform="matrix(0.05,0,0,0.05,34,0)" xlink:href="#bh"/><use transform="matrix(0.05,0,0,0.05,39.95,0)" xlink:href="#bi"/><use transform="matrix(0.05,0,0,0.05,49.95,0)" xlink:href="#bc"/><use transform="matrix(0.05,0,0,0.05,54.95,0)" xlink:href="#bj"/><use transform="matrix(0.05,0,0,0.05,58.900000000000006,0)" xlink:href="#aW"/><use transform="matrix(0.05,0,0,0.05,68.9,0)" xlink:href="#bb"/><use transform="matrix(0.05,0,0,0.05,78.9,0)" xlink:href="#bd"/><use transform="matrix(0.05,0,0,0.05,88.50000000000001,0)" xlink:href="#be"/><use transform="matrix(0.05,0,0,0.05,97.50000000000001,0)" xlink:href="#bf"/><use transform="matrix(0.05,0,0,0.05,107.5,0)" xlink:href="#aY"/></g><path d="M96-169c-40 0-48 33-48 73s9 75 48 75c24 0 41-14 43-38l32 2c-6 37-31 61-74 61-59 0-76-41-82-99-10-93 101-131 147-64 4 7 5 14 7 22l-32 3c-4-21-16-35-41-35" id="bz"/><g id="t"><use transform="matrix(0.05,0,0,0.05,0,0)" xlink:href="#bm"/><use transform="matrix(0.05,0,0,0.05,10,0)" xlink:href="#bz"/><use transform="matrix(0.05,0,0,0.05,19,0)" xlink:href="#bu"/></g><path d="M205 0l-28-72H64L36 0H1l101-248h38L239 0h-34zm-38-99l-47-123c-12 45-31 82-46 123h93" id="bA"/><g id="u"><use transform="matrix(0.05,0,0,0.05,0,0)" xlink:href="#bA"/><use transform="matrix(0.05,0,0,0.05,12,0)" xlink:href="#bz"/><use transform="matrix(0.05,0,0,0.05,21,0)" xlink:href="#bu"/></g><path d="M115-194c55 1 70 41 70 98S169 2 115 4C84 4 66-9 55-30l1 105H24l-1-265h31l2 30c10-21 28-34 59-34zm-8 174c40 0 45-34 45-75s-6-73-45-74c-42 0-51 32-51 76 0 43 10 73 51 73" id="bB"/><path d="M135-143c-3-34-86-38-87 0 15 53 115 12 119 90S17 21 10-45l28-5c4 36 97 45 98 0-10-56-113-15-118-90-4-57 82-63 122-42 12 7 21 19 24 35" id="bC"/><path d="M24-231v-30h32v30H24zM24 0v-190h32V0H24" id="bD"/><g id="v"><use transform="matrix(0.05,0,0,0.05,0,0)" xlink:href="#bB"/><use transform="matrix(0.05,0,0,0.05,10,0)" xlink:href="#bv"/><use transform="matrix(0.05,0,0,0.05,20,0)" xlink:href="#bC"/><use transform="matrix(0.05,0,0,0.05,29,0)" xlink:href="#bC"/><use transform="matrix(0.05,0,0,0.05,38,0)" xlink:href="#bD"/><use transform="matrix(0.05,0,0,0.05,41.95,0)" xlink:href="#bp"/><use transform="matrix(0.05,0,0,0.05,51.95,0)" xlink:href="#bt"/><use transform="matrix(0.05,0,0,0.05,61.95,0)" xlink:href="#bp"/></g><path d="M101-251c82-7 93 87 43 132L82-64C71-53 59-42 53-27h129V0H18c2-99 128-94 128-182 0-28-16-43-45-43s-46 15-49 41l-32-3c6-41 34-60 81-64" id="bE"/><use transform="matrix(0.05,0,0,0.05,0,0)" xlink:href="#bE" id="w"/><path d="M177-190C167-65 218 103 67 71c-23-6-38-20-44-43l32-5c15 47 100 32 89-28v-30C133-14 115 1 83 1 29 1 15-40 15-95c0-56 16-97 71-98 29-1 48 16 59 35 1-10 0-23 2-32h30zM94-22c36 0 50-32 50-73 0-42-14-75-50-75-39 0-46 34-46 75s6 73 46 73" id="bF"/><path d="M210-169c-67 3-38 105-44 169h-31v-121c0-29-5-50-35-48C34-165 62-65 56 0H25l-1-190h30c1 10-1 24 2 32 10-44 99-50 107 0 11-21 27-35 58-36 85-2 47 119 55 194h-31v-121c0-29-5-49-35-48" id="bG"/><path d="M68-38c1 34 0 65-14 84H32c9-13 17-26 17-46H33v-38h35" id="bH"/><g id="x"><use transform="matrix(0.05,0,0,0.05,0,0)" xlink:href="#bm"/><use transform="matrix(0.05,0,0,0.05,10,0)" xlink:href="#bw"/><use transform="matrix(0.05,0,0,0.05,15.949999999999998,0)" xlink:href="#bF"/><use transform="matrix(0.05,0,0,0.05,25.950000000000003,0)" xlink:href="#bv"/><use transform="matrix(0.05,0,0,0.05,35.95,0)" xlink:href="#bG"/><use transform="matrix(0.05,0,0,0.05,50.900000000000006,0)" xlink:href="#bp"/><use transform="matrix(0.05,0,0,0.05,60.900000000000006,0)" xlink:href="#bs"/><use transform="matrix(0.05,0,0,0.05,70.9,0)" xlink:href="#bu"/><use transform="matrix(0.05,0,0,0.05,75.9,0)" xlink:href="#bD"/><use transform="matrix(0.05,0,0,0.05,79.85000000000001,0)" xlink:href="#bH"/></g><g id="y"><use transform="matrix(0.05,0,0,0.05,0,0)" xlink:href="#bD"/><use transform="matrix(0.05,0,0,0.05,3.95,0)" xlink:href="#bs"/></g><use transform="matrix(0.05,0,0,0.05,0,0)" xlink:href="#bp" id="z"/><g id="A"><use transform="matrix(0.05,0,0,0.05,0,0)" xlink:href="#bv"/><use transform="matrix(0.05,0,0,0.05,10,0)" xlink:href="#bo"/><use transform="matrix(0.05,0,0,0.05,20,0)" xlink:href="#bu"/></g><g id="B"><use transform="matrix(0.05,0,0,0.05,0,0)" xlink:href="#bt"/><use transform="matrix(0.05,0,0,0.05,10,0)" xlink:href="#bD"/></g><path d="M30-248c118-7 216 8 213 122C240-48 200 0 122 0H30v-248zM63-27c89 8 146-16 146-99s-60-101-146-95v194" id="bI"/><path d="M127-220V0H93v-220H8v-28h204v28h-85" id="bJ"/><g id="C"><use transform="matrix(0.05,0,0,0.05,0,0)" xlink:href="#bI"/><use transform="matrix(0.05,0,0,0.05,12.950000000000001,0)" xlink:href="#bm"/><use transform="matrix(0.05,0,0,0.05,22.950000000000003,0)" xlink:href="#bu"/><use transform="matrix(0.05,0,0,0.05,27.950000000000003,0)" xlink:href="#bm"/><use transform="matrix(0.05,0,0,0.05,37.95,0)" xlink:href="#bJ"/><use transform="matrix(0.05,0,0,0.05,47.900000000000006,0)" xlink:href="#bx"/><use transform="matrix(0.05,0,0,0.05,56.900000000000006,0)" xlink:href="#bB"/><use transform="matrix(0.05,0,0,0.05,66.9,0)" xlink:href="#bp"/></g><path d="M33 0v-38h34V0H33" id="bK"/><g id="D"><use transform="matrix(0.05,0,0,0.05,0,0)" xlink:href="#bA"/><use transform="matrix(0.05,0,0,0.05,12,0)" xlink:href="#bw"/><use transform="matrix(0.05,0,0,0.05,17.95,0)" xlink:href="#bF"/><use transform="matrix(0.05,0,0,0.05,27.950000000000003,0)" xlink:href="#bo"/><use transform="matrix(0.05,0,0,0.05,37.95,0)" xlink:href="#bG"/><use transform="matrix(0.05,0,0,0.05,52.900000000000006,0)" xlink:href="#bp"/><use transform="matrix(0.05,0,0,0.05,62.900000000000006,0)" xlink:href="#bs"/><use transform="matrix(0.05,0,0,0.05,72.9,0)" xlink:href="#bu"/><use transform="matrix(0.05,0,0,0.05,77.9,0)" xlink:href="#bK"/></g><g id="E"><use transform="matrix(0.05,0,0,0.05,0,0)" xlink:href="#bA"/><use transform="matrix(0.05,0,0,0.05,12,0)" xlink:href="#bw"/><use transform="matrix(0.05,0,0,0.05,17.95,0)" xlink:href="#bF"/><use transform="matrix(0.05,0,0,0.05,27.950000000000003,0)" xlink:href="#bo"/><use transform="matrix(0.05,0,0,0.05,37.95,0)" xlink:href="#bG"/><use transform="matrix(0.05,0,0,0.05,52.900000000000006,0)" xlink:href="#bp"/><use transform="matrix(0.05,0,0,0.05,62.900000000000006,0)" xlink:href="#bs"/><use transform="matrix(0.05,0,0,0.05,72.9,0)" xlink:href="#bu"/></g><use transform="matrix(0.05,0,0,0.05,0,0)" xlink:href="#bm" id="F"/><g id="G"><use transform="matrix(0.05,0,0,0.05,0,0)" xlink:href="#bC"/><use transform="matrix(0.05,0,0,0.05,9,0)" xlink:href="#bo"/><use transform="matrix(0.05,0,0,0.05,19,0)" xlink:href="#bm"/></g><g id="H"><use transform="matrix(0.05,0,0,0.05,0,0)" xlink:href="#bl"/><use transform="matrix(0.05,0,0,0.05,9,0)" xlink:href="#bv"/><use transform="matrix(0.05,0,0,0.05,19,0)" xlink:href="#bn"/><use transform="matrix(0.05,0,0,0.05,22.95,0)" xlink:href="#bu"/><use transform="matrix(0.05,0,0,0.05,27.950000000000003,0)" xlink:href="#bm"/></g><g id="I"><use transform="matrix(0.05,0,0,0.05,0,0)" xlink:href="#bo"/><use transform="matrix(0.05,0,0,0.05,10,0)" xlink:href="#bs"/></g><path d="M115-194c53 0 69 39 70 98 0 66-23 100-70 100C84 3 66-7 56-30L54 0H23l1-261h32v101c10-23 28-34 59-34zm-8 174c40 0 45-34 45-75 0-40-5-75-45-74-42 0-51 32-51 76 0 43 10 73 51 73" id="bL"/><g id="J"><use transform="matrix(0.05,0,0,0.05,0,0)" xlink:href="#bm"/><use transform="matrix(0.05,0,0,0.05,10,0)" xlink:href="#bu"/><use transform="matrix(0.05,0,0,0.05,15,0)" xlink:href="#bu"/><use transform="matrix(0.05,0,0,0.05,20,0)" xlink:href="#bw"/><use transform="matrix(0.05,0,0,0.05,25.950000000000003,0)" xlink:href="#bD"/><use transform="matrix(0.05,0,0,0.05,29.899999999999995,0)" xlink:href="#bL"/><use transform="matrix(0.05,0,0,0.05,39.9,0)" xlink:href="#bo"/><use transform="matrix(0.05,0,0,0.05,49.9,0)" xlink:href="#bu"/><use transform="matrix(0.05,0,0,0.05,54.900000000000006,0)" xlink:href="#bv"/></g><path d="M109-170H84l-4-78h32zm-65 0H19l-4-78h33" id="bM"/><g id="K"><use transform="matrix(0.05,0,0,0.05,0,0)" xlink:href="#bM"/><use transform="matrix(0.05,0,0,0.05,6.3500000000000005,0)" xlink:href="#bI"/><use transform="matrix(0.05,0,0,0.05,19.3,0)" xlink:href="#bm"/><use transform="matrix(0.05,0,0,0.05,29.3,0)" xlink:href="#bu"/><use transform="matrix(0.05,0,0,0.05,34.3,0)" xlink:href="#bm"/><use transform="matrix(0.05,0,0,0.05,44.3,0)" xlink:href="#bJ"/><use transform="matrix(0.05,0,0,0.05,54.25,0)" xlink:href="#bx"/><use transform="matrix(0.05,0,0,0.05,63.25,0)" xlink:href="#bB"/><use transform="matrix(0.05,0,0,0.05,73.25,0)" xlink:href="#bp"/><use transform="matrix(0.05,0,0,0.05,83.25,0)" xlink:href="#bM"/></g><g id="L"><use transform="matrix(0.05,0,0,0.05,0,0)" xlink:href="#bD"/><use transform="matrix(0.05,0,0,0.05,3.95,0)" xlink:href="#bG"/><use transform="matrix(0.05,0,0,0.05,18.900000000000002,0)" xlink:href="#bB"/><use transform="matrix(0.05,0,0,0.05,28.900000000000002,0)" xlink:href="#bv"/><use transform="matrix(0.05,0,0,0.05,38.900000000000006,0)" xlink:href="#bC"/><use transform="matrix(0.05,0,0,0.05,47.900000000000006,0)" xlink:href="#bu"/><use transform="matrix(0.05,0,0,0.05,52.900000000000006,0)" xlink:href="#bm"/><use transform="matrix(0.05,0,0,0.05,62.900000000000006,0)" xlink:href="#bu"/><use transform="matrix(0.05,0,0,0.05,67.9,0)" xlink:href="#bv"/></g><path d="M190 0L58-211 59 0H30v-248h39L202-35l-2-213h31V0h-41" id="bN"/><path d="M33 0v-248h34V0H33" id="bO"/><g id="M"><use transform="matrix(0.05,0,0,0.05,0,0)" xlink:href="#bN"/><use transform="matrix(0.05,0,0,0.05,12.950000000000001,0)" xlink:href="#bv"/><use transform="matrix(0.05,0,0,0.05,22.950000000000003,0)" xlink:href="#bt"/><use transform="matrix(0.05,0,0,0.05,32.95,0)" xlink:href="#bp"/><use transform="matrix(0.05,0,0,0.05,42.95,0)" xlink:href="#bO"/><use transform="matrix(0.05,0,0,0.05,47.95,0)" xlink:href="#bt"/><use transform="matrix(0.05,0,0,0.05,57.95,0)" xlink:href="#bK"/></g><path d="M212-179c-10-28-35-45-73-45-59 0-87 40-87 99 0 60 29 101 89 101 43 0 62-24 78-52l27 14C228-24 195 4 139 4 59 4 22-46 18-125c-6-104 99-153 187-111 19 9 31 26 39 46" id="bP"/><g id="N"><use transform="matrix(0.05,0,0,0.05,0,0)" xlink:href="#bP"/><use transform="matrix(0.05,0,0,0.05,12.950000000000001,0)" xlink:href="#bv"/><use transform="matrix(0.05,0,0,0.05,22.950000000000003,0)" xlink:href="#bG"/><use transform="matrix(0.05,0,0,0.05,37.900000000000006,0)" xlink:href="#bp"/></g><g id="O"><use transform="matrix(0.05,0,0,0.05,0,0)" xlink:href="#bl"/><use transform="matrix(0.05,0,0,0.05,9,0)" xlink:href="#bD"/><use transform="matrix(0.05,0,0,0.05,12.949999999999998,0)" xlink:href="#bs"/><use transform="matrix(0.05,0,0,0.05,22.95,0)" xlink:href="#bz"/><use transform="matrix(0.05,0,0,0.05,31.950000000000003,0)" xlink:href="#bv"/><use transform="matrix(0.05,0,0,0.05,41.95,0)" xlink:href="#bn"/><use transform="matrix(0.05,0,0,0.05,45.900000000000006,0)" xlink:href="#bm"/><use transform="matrix(0.05,0,0,0.05,55.900000000000006,0)" xlink:href="#bw"/><use transform="matrix(0.05,0,0,0.05,61.85,0)" xlink:href="#bp"/></g><g id="P"><use transform="matrix(0.05,0,0,0.05,0,0)" xlink:href="#bD"/><use transform="matrix(0.05,0,0,0.05,3.95,0)" xlink:href="#bn"/></g><g id="Q"><use transform="matrix(0.05,0,0,0.05,0,0)" xlink:href="#bN"/><use transform="matrix(0.05,0,0,0.05,12.950000000000001,0)" xlink:href="#bv"/><use transform="matrix(0.05,0,0,0.05,22.950000000000003,0)" xlink:href="#bt"/><use transform="matrix(0.05,0,0,0.05,32.95,0)" xlink:href="#bp"/><use transform="matrix(0.05,0,0,0.05,42.95,0)" xlink:href="#bO"/><use transform="matrix(0.05,0,0,0.05,47.95,0)" xlink:href="#bt"/></g><use transform="matrix(0.05,0,0,0.05,0,0)" xlink:href="#bm" id="R"/><path d="M106-169C34-169 62-67 57 0H25v-261h32l-1 103c12-21 28-36 61-36 89 0 53 116 60 194h-32v-121c2-32-8-49-39-48" id="bQ"/><g id="S"><use transform="matrix(0.05,0,0,0.05,0,0)" xlink:href="#bz"/><use transform="matrix(0.05,0,0,0.05,9,0)" xlink:href="#bQ"/><use transform="matrix(0.05,0,0,0.05,19,0)" xlink:href="#bp"/></g><g id="T"><use transform="matrix(0.05,0,0,0.05,0,0)" xlink:href="#bt"/><use transform="matrix(0.05,0,0,0.05,10,0)" xlink:href="#bp"/><use transform="matrix(0.05,0,0,0.05,20,0)" xlink:href="#bw"/><use transform="matrix(0.05,0,0,0.05,25.950000000000003,0)" xlink:href="#bD"/><use transform="matrix(0.05,0,0,0.05,29.899999999999995,0)" xlink:href="#bl"/><use transform="matrix(0.05,0,0,0.05,38.9,0)" xlink:href="#bm"/><use transform="matrix(0.05,0,0,0.05,48.9,0)" xlink:href="#bs"/><use transform="matrix(0.05,0,0,0.05,58.900000000000006,0)" xlink:href="#bv"/></g><g id="U"><use transform="matrix(0.05,0,0,0.05,0,0)" xlink:href="#bt"/><use transform="matrix(0.05,0,0,0.05,10,0)" xlink:href="#bm"/></g><path d="M140-251c81 0 123 46 123 126C263-46 219 4 140 4 59 4 17-45 17-125s42-126 123-126zm0 227c63 0 89-41 89-101s-29-99-89-99c-61 0-89 39-89 99S79-25 140-24" id="bR"/><path d="M137 0h-34L2-248h35l83 218 83-218h36" id="bS"/><path d="M103-251c84 0 111 97 45 133-19 10-37 24-39 52H78c0-63 77-55 77-114 0-30-21-42-52-43-32 0-53 17-56 46l-32-2c7-45 34-72 88-72zM77 0v-35h34V0H77" id="bT"/><g id="V"><use transform="matrix(0.05,0,0,0.05,0,0)" xlink:href="#bR"/><use transform="matrix(0.05,0,0,0.05,14,0)" xlink:href="#bB"/><use transform="matrix(0.05,0,0,0.05,24,0)" xlink:href="#bp"/><use transform="matrix(0.05,0,0,0.05,34,0)" xlink:href="#bw"/><use transform="matrix(0.05,0,0,0.05,39.95,0)" xlink:href="#bm"/><use transform="matrix(0.05,0,0,0.05,49.95,0)" xlink:href="#bu"/><use transform="matrix(0.05,0,0,0.05,54.95,0)" xlink:href="#bD"/><use transform="matrix(0.05,0,0,0.05,58.900000000000006,0)" xlink:href="#bv"/><use transform="matrix(0.05,0,0,0.05,68.9,0)" xlink:href="#bs"/><use transform="matrix(0.05,0,0,0.05,78.9,0)" xlink:href="#bS"/><use transform="matrix(0.05,0,0,0.05,89.55000000000001,0)" xlink:href="#bm"/><use transform="matrix(0.05,0,0,0.05,99.55000000000001,0)" xlink:href="#bw"/><use transform="matrix(0.05,0,0,0.05,105.5,0)" xlink:href="#bD"/><use transform="matrix(0.05,0,0,0.05,109.45,0)" xlink:href="#bm"/><use transform="matrix(0.05,0,0,0.05,119.45,0)" xlink:href="#bL"/><use transform="matrix(0.05,0,0,0.05,129.45000000000002,0)" xlink:href="#bn"/><use transform="matrix(0.05,0,0,0.05,133.4,0)" xlink:href="#bp"/><use transform="matrix(0.05,0,0,0.05,143.4,0)" xlink:href="#bJ"/><use transform="matrix(0.05,0,0,0.05,153.35,0)" xlink:href="#bx"/><use transform="matrix(0.05,0,0,0.05,162.35,0)" xlink:href="#bB"/><use transform="matrix(0.05,0,0,0.05,172.35,0)" xlink:href="#bp"/><use transform="matrix(0.05,0,0,0.05,182.35,0)" xlink:href="#bT"/></g><path d="M18-101c0-91 52-150 145-150 68 0 111 34 111 101C274-54 221 4 128 4 59 4 18-33 18-101zm202-32c4-46-15-77-59-77-65 0-88 46-91 108-2 41 22 65 60 65 60 0 84-40 90-96" id="bU"/><path d="M156-122c2-23-7-37-28-37-47 0-58 44-58 89 0 24 12 40 36 40 43 0 47-49 50-92zM-8 75l50-265h48c0 10-3 24-3 30 22-50 127-45 121 29-6 73-21 135-92 135-29 0-46-14-55-35L41 75H-8" id="bV"/><path d="M114-194c63-2 87 48 72 110H63c-3 28 1 55 31 54 21-1 32-13 37-29l44 13C160-14 137 4 91 4 41 4 11-22 11-73c0-71 33-119 103-121zm30 77c14-47-50-61-67-22-3 6-6 13-8 22h75" id="bW"/><path d="M84-151c13-25 34-51 72-40l-8 41C67-170 71-64 56 0H6l36-190h47" id="bX"/><path d="M166-52c-4 17 5 29 24 23l-3 27c-30 11-74 1-67-34C105-15 91 4 56 4 23 4 3-15 2-49c0-64 63-67 128-67 10-22 3-53-29-45-13 3-22 10-25 24l-46-5c5-64 156-77 153 0-1 33-11 60-17 90zM97-88c-44-9-64 57-19 57 31 0 42-28 47-57H97" id="bY"/><path d="M72-63c-8 23 5 39 32 30L98-1C54 14 12-6 23-64l18-93H15l7-33h28l24-45h31l-8 45h35l-6 33H90" id="bZ"/><path d="M50-224l7-37h49l-7 37H50zM6 0l37-190h49L55 0H6" id="ca"/><path d="M124-194c51 0 84 22 84 74C207-44 167 4 94 4 43 4 11-23 11-74c0-74 41-120 113-120zM99-30c46 0 58-42 58-86 0-27-11-44-37-44-44 0-55 40-57 84-1 27 10 45 36 46" id="cb"/><path d="M151-194c95 0 34 128 28 194h-49l25-134c0-29-45-25-59-9C67-111 69-48 56 0H6l36-190h47l-4 32c15-20 33-36 66-36" id="cc"/><g id="W"><use transform="matrix(0.05,0,0,0.05,0,0)" xlink:href="#bU"/><use transform="matrix(0.05,0,0,0.05,14,0)" xlink:href="#bV"/><use transform="matrix(0.05,0,0,0.05,24.950000000000003,0)" xlink:href="#bW"/><use transform="matrix(0.05,0,0,0.05,34.95,0)" xlink:href="#bX"/><use transform="matrix(0.05,0,0,0.05,41.95,0)" xlink:href="#bY"/><use transform="matrix(0.05,0,0,0.05,51.95,0)" xlink:href="#bZ"/><use transform="matrix(0.05,0,0,0.05,57.900000000000006,0)" xlink:href="#ca"/><use transform="matrix(0.05,0,0,0.05,62.900000000000006,0)" xlink:href="#cb"/><use transform="matrix(0.05,0,0,0.05,73.85000000000001,0)" xlink:href="#cc"/></g><path d="M212 0l43-212L151 0h-37L90-212C82-137 65-70 52 0H6l48-248h70l20 187 93-187h69L258 0h-46" id="cd"/><path d="M45-171c29-32 103-29 114 14 2-11 5-23 8-33h47L176-2c-3 70-92 96-155 64C9 56 1 42-1 25l50-5c2 28 48 27 63 11 13-13 20-45 21-66-13 20-30 35-62 36-87 3-60-134-26-172zM94-35c41-3 55-43 55-86 0-24-12-39-35-39-43 0-51 48-51 90 0 22 9 37 31 35" id="ce"/><g id="X"><use transform="matrix(0.05,0,0,0.05,0,0)" xlink:href="#cd"/><use transform="matrix(0.05,0,0,0.05,14.950000000000001,0)" xlink:href="#bY"/><use transform="matrix(0.05,0,0,0.05,24.950000000000003,0)" xlink:href="#bV"/><use transform="matrix(0.05,0,0,0.05,35.900000000000006,0)" xlink:href="#bV"/><use transform="matrix(0.05,0,0,0.05,46.85000000000001,0)" xlink:href="#ca"/><use transform="matrix(0.05,0,0,0.05,51.85,0)" xlink:href="#cc"/><use transform="matrix(0.05,0,0,0.05,62.80000000000001,0)" xlink:href="#ce"/></g><path d="M130 0H70L30-248h54l24 206c31-72 69-137 103-206h54" id="cf"/><path d="M87-160c15-17 32-34 63-34 99 1 59 172-1 192-36 12-78 0-87-29L54 0H6l52-261h49zm71 38c0-24-5-37-29-37-46 0-55 46-57 89-1 25 12 40 35 40 44 0 51-50 51-92" id="cg"/><path d="M6 0l51-261h49L55 0H6" id="ch"/><g id="Y"><use transform="matrix(0.05,0,0,0.05,0,0)" xlink:href="#bU"/><use transform="matrix(0.05,0,0,0.05,14,0)" xlink:href="#bV"/><use transform="matrix(0.05,0,0,0.05,24.950000000000003,0)" xlink:href="#bW"/><use transform="matrix(0.05,0,0,0.05,34.95,0)" xlink:href="#bX"/><use transform="matrix(0.05,0,0,0.05,41.95,0)" xlink:href="#bY"/><use transform="matrix(0.05,0,0,0.05,51.95,0)" xlink:href="#bZ"/><use transform="matrix(0.05,0,0,0.05,57.900000000000006,0)" xlink:href="#ca"/><use transform="matrix(0.05,0,0,0.05,62.900000000000006,0)" xlink:href="#cb"/><use transform="matrix(0.05,0,0,0.05,73.85000000000001,0)" xlink:href="#cc"/><use transform="matrix(0.05,0,0,0.05,84.80000000000001,0)" xlink:href="#cf"/><use transform="matrix(0.05,0,0,0.05,96.15,0)" xlink:href="#bY"/><use transform="matrix(0.05,0,0,0.05,106.15,0)" xlink:href="#bX"/><use transform="matrix(0.05,0,0,0.05,113.15,0)" xlink:href="#ca"/><use transform="matrix(0.05,0,0,0.05,118.15,0)" xlink:href="#bY"/><use transform="matrix(0.05,0,0,0.05,128.15,0)" xlink:href="#cg"/><use transform="matrix(0.05,0,0,0.05,139.1,0)" xlink:href="#ch"/><use transform="matrix(0.05,0,0,0.05,144.1,0)" xlink:href="#bW"/></g><path d="M258-177c0 46-32 67-71 75L235 0h-57l-41-94H76L58 0H6l48-248c89 2 204-19 204 71zm-53 3c0-46-63-30-107-33l-14 73c51-2 120 13 121-40" id="ci"/><path d="M144-137c-1-29-70-35-71-2 16 41 103 10 103 80C176 9 79 16 32-9 18-17 9-31 4-48l44-6c3 32 80 36 82 1-15-42-103-11-103-82 0-77 157-79 161-8" id="cj"/><path d="M150-105c8-23 8-54-22-51-68 7-54 98-72 156H6l50-261h50L85-158c15-20 33-36 66-36 95 0 34 128 28 194h-49" id="ck"/><path d="M6 0l48-248h195l-8 40H98l-12 63h132l-7 40H79L66-40h150l-8 40H6" id="cl"/><path d="M255-194c90 0 29 129 24 194h-49l25-136c-7-39-53-14-60 9-12 38-18 85-28 127h-49l25-136c2-29-39-23-50-7C69-108 68-47 56 0H6l36-190h48c-1 10-6 24-4 32 12-20 27-36 57-36s46 15 50 41c14-21 29-41 62-41" id="cm"/><g id="Z"><use transform="matrix(0.05,0,0,0.05,0,0)" xlink:href="#ci"/><use transform="matrix(0.05,0,0,0.05,12.950000000000001,0)" xlink:href="#bW"/><use transform="matrix(0.05,0,0,0.05,22.950000000000003,0)" xlink:href="#ch"/><use transform="matrix(0.05,0,0,0.05,27.950000000000003,0)" xlink:href="#bY"/><use transform="matrix(0.05,0,0,0.05,37.95,0)" xlink:href="#bZ"/><use transform="matrix(0.05,0,0,0.05,43.900000000000006,0)" xlink:href="#ca"/><use transform="matrix(0.05,0,0,0.05,48.900000000000006,0)" xlink:href="#cb"/><use transform="matrix(0.05,0,0,0.05,59.85,0)" xlink:href="#cc"/><use transform="matrix(0.05,0,0,0.05,70.80000000000001,0)" xlink:href="#cj"/><use transform="matrix(0.05,0,0,0.05,80.80000000000001,0)" xlink:href="#ck"/><use transform="matrix(0.05,0,0,0.05,91.75000000000001,0)" xlink:href="#ca"/><use transform="matrix(0.05,0,0,0.05,96.75000000000001,0)" xlink:href="#bV"/><use transform="matrix(0.05,0,0,0.05,107.7,0)" xlink:href="#cl"/><use transform="matrix(0.05,0,0,0.05,119.7,0)" xlink:href="#ch"/><use transform="matrix(0.05,0,0,0.05,124.7,0)" xlink:href="#bW"/><use transform="matrix(0.05,0,0,0.05,134.70000000000002,0)" xlink:href="#cm"/><use transform="matrix(0.05,0,0,0.05,150.70000000000002,0)" xlink:href="#bW"/><use transform="matrix(0.05,0,0,0.05,160.70000000000002,0)" xlink:href="#cc"/><use transform="matrix(0.05,0,0,0.05,171.65,0)" xlink:href="#bZ"/></g><path d="M249-183c0 48-29 72-75 77L221 0h-36l-43-103H65L45 0H11l48-248c83 2 190-17 190 65zm-34 3c0-55-74-39-127-41l-18 92c63-1 145 13 145-51" id="cn"/><path d="M55-144c13 50 104 24 104 88C159 21 15 23 1-39l26-10c6 40 102 42 102-4-13-50-104-23-104-87 0-71 143-71 148-8l-29 4c-5-35-85-37-89 0" id="co"/><path d="M67-158c15-20 31-36 64-36 94 0 33 127 27 194h-32l25-140c3-38-53-32-70-12C52-117 51-51 37 0H6l51-261h31" id="cp"/><g id="aa"><use transform="matrix(0.05,0,0,0.05,0,0)" xlink:href="#cn"/><use transform="matrix(0.05,0,0,0.05,12.950000000000001,0)" xlink:href="#aY"/><use transform="matrix(0.05,0,0,0.05,22.950000000000003,0)" xlink:href="#aZ"/><use transform="matrix(0.05,0,0,0.05,26.900000000000002,0)" xlink:href="#bi"/><use transform="matrix(0.05,0,0,0.05,36.900000000000006,0)" xlink:href="#bc"/><use transform="matrix(0.05,0,0,0.05,41.900000000000006,0)" xlink:href="#bj"/><use transform="matrix(0.05,0,0,0.05,45.85000000000001,0)" xlink:href="#aW"/><use transform="matrix(0.05,0,0,0.05,55.85,0)" xlink:href="#bb"/><use transform="matrix(0.05,0,0,0.05,65.85000000000001,0)" xlink:href="#co"/><use transform="matrix(0.05,0,0,0.05,74.85000000000001,0)" xlink:href="#cp"/><use transform="matrix(0.05,0,0,0.05,84.85000000000001,0)" xlink:href="#bj"/><use transform="matrix(0.05,0,0,0.05,88.80000000000001,0)" xlink:href="#bf"/><use transform="matrix(0.05,0,0,0.05,98.80000000000001,0)" xlink:href="#ba"/><use transform="matrix(0.05,0,0,0.05,110.80000000000001,0)" xlink:href="#aZ"/><use transform="matrix(0.05,0,0,0.05,114.75,0)" xlink:href="#aY"/><use transform="matrix(0.05,0,0,0.05,124.75,0)" xlink:href="#aV"/><use transform="matrix(0.05,0,0,0.05,139.70000000000002,0)" xlink:href="#aY"/><use transform="matrix(0.05,0,0,0.05,149.70000000000002,0)" xlink:href="#bb"/><use transform="matrix(0.05,0,0,0.05,159.70000000000002,0)" xlink:href="#bc"/><use transform="matrix(0.05,0,0,0.05,164.70000000000002,0)" xlink:href="#bd"/><use transform="matrix(0.05,0,0,0.05,174.3,0)" xlink:href="#be"/><use transform="matrix(0.05,0,0,0.05,183.3,0)" xlink:href="#bf"/><use transform="matrix(0.05,0,0,0.05,193.3,0)" xlink:href="#aY"/></g><path d="M187 0l-14-72H61L19 0h-37l149-248h38L221 0h-34zm-19-99l-22-123L76-99h92" id="cq"/><path d="M76-167L44 0H12l33-167H18l4-23h27c3-47 25-81 82-69l-4 24c-35-8-44 15-46 45h37l-5 23H76" id="cr"/><path d="M44-68c0 29 11 47 38 47 30 0 42-19 51-41l28 9C148-21 126 4 82 4 31 4 10-29 12-85c3-77 74-140 146-93 12 8 15 23 18 40l-31 5c-1-22-13-36-36-36-52 0-65 49-65 101" id="cs"/><g id="ab"><use transform="matrix(0.04320987654320988,0,0,0.04320987654320988,0,0)" xlink:href="#cq"/><use transform="matrix(0.04320987654320988,0,0,0.04320987654320988,10.370370370370372,0)" xlink:href="#cq"/><use transform="matrix(0.04320987654320988,0,0,0.04320987654320988,20.740740740740744,0)" xlink:href="#aS"/><use transform="matrix(0.04320987654320988,0,0,0.04320987654320988,31.111111111111114,0)" xlink:href="#cn"/><use transform="matrix(0.04320987654320988,0,0,0.04320987654320988,42.302469135802475,0)" xlink:href="#aY"/><use transform="matrix(0.04320987654320988,0,0,0.04320987654320988,50.94444444444445,0)" xlink:href="#cr"/><use transform="matrix(0.04320987654320988,0,0,0.04320987654320988,55.26543209876544,0)" xlink:href="#aY"/><use transform="matrix(0.04320987654320988,0,0,0.04320987654320988,63.90740740740741,0)" xlink:href="#bh"/><use transform="matrix(0.04320987654320988,0,0,0.04320987654320988,69.0493827160494,0)" xlink:href="#aY"/><use transform="matrix(0.04320987654320988,0,0,0.04320987654320988,77.69135802469137,0)" xlink:href="#bb"/><use transform="matrix(0.04320987654320988,0,0,0.04320987654320988,86.33333333333334,0)" xlink:href="#cs"/><use transform="matrix(0.04320987654320988,0,0,0.04320987654320988,94.11111111111111,0)" xlink:href="#aY"/><use transform="matrix(0.04320987654320988,0,0,0.04320987654320988,102.7530864197531,0)" xlink:href="#bd"/><use transform="matrix(0.04320987654320988,0,0,0.04320987654320988,111.04938271604938,0)" xlink:href="#be"/><use transform="matrix(0.04320987654320988,0,0,0.04320987654320988,118.82716049382718,0)" xlink:href="#bf"/><use transform="matrix(0.04320987654320988,0,0,0.04320987654320988,127.46913580246915,0)" xlink:href="#aY"/></g><path d="M101-234c-31-9-42 10-38 44h38v23H63V0H32v-167H5v-23h27c-7-52 17-82 69-68v24" id="ct"/><g id="ac"><use transform="matrix(0.05,0,0,0.05,0,0)" xlink:href="#ct"/><use transform="matrix(0.05,0,0,0.05,5,0)" xlink:href="#bD"/><use transform="matrix(0.05,0,0,0.05,8.95,0)" xlink:href="#bw"/><use transform="matrix(0.05,0,0,0.05,14.899999999999999,0)" xlink:href="#bC"/><use transform="matrix(0.05,0,0,0.05,23.9,0)" xlink:href="#bu"/></g><g id="ad"><use transform="matrix(0.05,0,0,0.05,0,0)" xlink:href="#bC"/><use transform="matrix(0.05,0,0,0.05,9,0)" xlink:href="#bp"/><use transform="matrix(0.05,0,0,0.05,19,0)" xlink:href="#bz"/><use transform="matrix(0.05,0,0,0.05,28,0)" xlink:href="#bv"/><use transform="matrix(0.05,0,0,0.05,38,0)" xlink:href="#bs"/><use transform="matrix(0.05,0,0,0.05,48,0)" xlink:href="#bt"/></g></defs></g></svg>